<?xml version="1.0" encoding="utf-8"?>
<!-- Generator: Adobe Illustrator 13.0.0, SVG Export Plug-In . SVG Version: 6.00 Build 14948)  -->
<!DOCTYPE svg PUBLIC "-//W3C//DTD SVG 1.1//EN" "http://www.w3.org/Graphics/SVG/1.1/DTD/svg11.dtd">
<svg version="1.1" id="Layer_1" xmlns="http://www.w3.org/2000/svg" xmlns:xlink="http://www.w3.org/1999/xlink" x="0px" y="0px"
	 width="512px" height="512px" viewBox="0 0 512 512" enable-background="new 0 0 512 512" xml:space="preserve">
<g>
	<polyline fill="#68217A" points="0.845,511.276 512.845,511.276 512.845,-0.724 0.845,-0.724 0.845,511.276 	"/>
	<path fill="#FFFFFF" d="M391.275,300.344h-25.313v-37.968c0-5.248-4.012-9.261-9.26-9.261h-90.442v-27.472h32.103
		c5.247,0,9.26-4.014,9.26-9.261v-91.987c0-5.248-4.013-9.26-9.26-9.26h-82.418c-5.248,0-9.26,4.013-9.26,9.26v91.986
		c0,5.248,4.013,9.261,9.26,9.261h31.794v27.472h-90.443c-5.247,0-9.26,4.013-9.26,9.26v37.968h-25.621
		c-5.247,0.001-9.26,4.014-9.26,9.26v76.554c0,5.247,4.013,9.26,9.26,9.26h66.366c5.248,0,9.261-4.014,9.261-9.26v-76.554
		c0-5.246-4.014-9.259-9.261-9.259h-22.225v-28.708h81.183v28.708h-24.077c-5.247,0-9.26,4.013-9.26,9.259v76.554
		c0,5.247,4.013,9.26,9.26,9.26h66.367c5.248,0,9.261-4.014,9.261-9.26v-76.554c0-5.246-4.014-9.259-9.261-9.259h-23.769v-28.708
		h81.183v28.708h-22.534c-5.248,0-9.261,4.013-9.261,9.259v76.554c0,5.247,4.013,9.26,9.261,9.26h66.366
		c5.248,0,9.26-4.014,9.26-9.26v-76.554C400.535,304.356,396.522,300.344,391.275,300.344z M225.206,133.656h63.896v73.465h-63.896
		V133.656z M179.521,376.896h-47.846v-58.031h47.846V376.896z M280.769,376.896h-47.846v-58.031h47.846V376.896z M382.015,376.896
		h-47.846v-58.031h47.846V376.896z"/>
</g>
</svg>
