<?xml version="1.0" encoding="utf-8"?>
<!-- Generator: Adobe Illustrator 13.0.0, SVG Export Plug-In . SVG Version: 6.00 Build 14948)  -->
<!DOCTYPE svg PUBLIC "-//W3C//DTD SVG 1.1//EN" "http://www.w3.org/Graphics/SVG/1.1/DTD/svg11.dtd">
<svg version="1.1" id="Layer_1" xmlns="http://www.w3.org/2000/svg" xmlns:xlink="http://www.w3.org/1999/xlink" x="0px" y="0px"
	 width="512px" height="512px" viewBox="0 0 512 512" enable-background="new 0 0 512 512" xml:space="preserve">
<polyline fill="#EBEBEB" points="0.987,512.559 512.987,512.559 512.987,0.559 0.987,0.559 0.987,512.559 "/>
<g>
	<path fill="#FFA000" d="M296.626,214.153l-31.66,29.459l-29.38-59.256l15.202-34.077c3.848-6.832,10.126-6.844,13.974,0
		L296.626,214.153z"/>
	<polygon fill="#F57F17" points="264.966,243.612 146.655,353.674 235.587,184.355 	"/>
	<path fill="#FFCA28" d="M331.254,169.125c5.655-5.437,11.503-3.583,12.993,4.12l30.796,178.954l-102.086,61.183
		c-3.572,1.974-13.032,2.828-13.032,2.828s-8.635-1.032-11.927-2.859l-101.346-59.684L331.254,169.125z"/>
	<path fill="#FFA000" d="M235.587,184.355l-88.932,169.319l39.611-247.463c1.459-7.709,5.847-8.452,9.763-1.647L235.587,184.355z"/>
</g>
</svg>
