<?xml version="1.0" encoding="utf-8"?>
<!-- Generator: Adobe Illustrator 13.0.0, SVG Export Plug-In . SVG Version: 6.00 Build 14948)  -->
<!DOCTYPE svg PUBLIC "-//W3C//DTD SVG 1.1//EN" "http://www.w3.org/Graphics/SVG/1.1/DTD/svg11.dtd">
<svg version="1.1" id="Layer_1" xmlns="http://www.w3.org/2000/svg" xmlns:xlink="http://www.w3.org/1999/xlink" x="0px" y="0px"
	 width="512px" height="512px" viewBox="0 0 512 512" enable-background="new 0 0 512 512" xml:space="preserve">
<polyline fill="#8FC84E" points="0,512 512,512 512,0 0,0 0,512 "/>
<path fill="#FFFFFF" d="M149.543,244.85c0-1.563-0.822-2.998-2.169-3.771l-35.933-20.683c-0.608-0.356-1.29-0.543-1.979-0.569
	h-0.372c-0.687,0.026-1.367,0.213-1.984,0.569l-35.934,20.683c-1.34,0.772-2.172,2.207-2.172,3.771l0.079,55.682
	c0,0.774,0.402,1.497,1.083,1.875c0.667,0.399,1.492,0.399,2.156,0l21.355-12.229c1.351-0.802,2.172-2.217,2.172-3.767V260.4
	c0-1.551,0.821-2.989,2.167-3.758l9.094-5.236c0.678-0.396,1.419-0.587,2.176-0.587c0.74,0,1.5,0.19,2.159,0.587l9.089,5.236
	c1.346,0.769,2.17,2.207,2.17,3.758v26.011c0,1.55,0.833,2.976,2.175,3.767l21.349,12.229c0.671,0.399,1.507,0.399,2.171,0
	c0.661-0.378,1.078-1.101,1.078-1.875L149.543,244.85"/>
<path fill="#FFFFFF" d="M317.828,273.844c0,0.389-0.209,0.745-0.545,0.94l-12.342,7.11c-0.336,0.193-0.746,0.193-1.082,0
	l-12.344-7.11c-0.338-0.195-0.543-0.554-0.543-0.94v-14.253c0-0.388,0.205-0.745,0.541-0.938l12.343-7.128
	c0.339-0.194,0.749-0.194,1.088,0l12.339,7.128c0.336,0.193,0.545,0.552,0.545,0.938V273.844 M321.163,168.303
	c-0.674-0.376-1.493-0.367-2.159,0.023c-0.661,0.39-1.068,1.101-1.068,1.871v55.146c0,0.541-0.293,1.044-0.759,1.315
	c-0.469,0.273-1.049,0.273-1.521,0l-8.997-5.184c-1.346-0.777-2.997-0.774-4.337,0l-35.948,20.746
	c-1.344,0.776-2.172,2.206-2.172,3.758v41.5c0,1.551,0.828,2.981,2.171,3.76L302.314,312c1.346,0.777,3.001,0.777,4.343,0
	l35.953-20.761c1.343-0.778,2.17-2.21,2.17-3.761V184.028c0-1.571-0.851-3.022-2.227-3.789L321.163,168.303z"/>
<path fill="#FFFFFF" d="M439.641,259.221c1.342-0.777,2.161-2.207,2.161-3.755v-10.057c0-1.548-0.819-2.978-2.161-3.754
	l-35.715-20.738c-1.342-0.782-3.004-0.782-4.35-0.006l-35.937,20.746c-1.344,0.776-2.169,2.207-2.169,3.76v41.485
	c0,1.562,0.838,3,2.191,3.772l35.712,20.349c1.315,0.754,2.933,0.759,4.254,0.023l21.601-12.005
	c0.688-0.382,1.114-1.101,1.117-1.882c0.005-0.783-0.41-1.506-1.089-1.898l-36.161-20.755c-0.678-0.386-1.093-1.106-1.093-1.883
	v-13.003c0-0.771,0.413-1.492,1.087-1.879l11.255-6.49c0.669-0.386,1.496-0.386,2.166,0l11.261,6.49
	c0.673,0.387,1.088,1.105,1.088,1.879v10.229c0,0.778,0.415,1.494,1.088,1.885c0.673,0.386,1.501,0.383,2.173-0.006L439.641,259.221
	"/>
<path fill="#FFFFFF" d="M204.78,220.692c1.342-0.773,2.998-0.773,4.34,0l35.943,20.742c1.345,0.776,2.172,2.208,2.172,3.761v41.516
	c0,1.55-0.827,2.98-2.169,3.762l-35.944,20.758c-1.344,0.775-2.999,0.775-4.342,0l-35.935-20.758
	c-1.342-0.779-2.169-2.212-2.169-3.762v-41.518c0-1.551,0.827-2.982,2.171-3.759L204.78,220.692"/>
</svg>
