<?xml version="1.0" encoding="utf-8"?>
<!-- Generator: Adobe Illustrator 13.0.0, SVG Export Plug-In . SVG Version: 6.00 Build 14948)  -->
<!DOCTYPE svg PUBLIC "-//W3C//DTD SVG 1.1//EN" "http://www.w3.org/Graphics/SVG/1.1/DTD/svg11.dtd">
<svg version="1.1" id="Layer_1" xmlns="http://www.w3.org/2000/svg" xmlns:xlink="http://www.w3.org/1999/xlink" x="0px" y="0px"
	 width="512px" height="512px" viewBox="0 0 512 512" enable-background="new 0 0 512 512" xml:space="preserve">
<polyline fill="#00DBFC" points="2.562,515.646 514.562,515.646 514.562,3.647 2.562,3.647 2.562,515.646 "/>
<g>
	<circle fill="#FFFFFF" cx="258.563" cy="259.581" r="29.611"/>
	<path fill="#FFFFFF" d="M407.155,230.508c-10.229-8.614-24.766-16.151-41.994-22.074c-3.231-1.077-7-2.153-10.768-3.23
		c0.538-2.692,1.077-4.846,1.614-7.538c8.075-39.84,2.153-71.066-15.075-81.295c-8.613-4.845-20.458-4.845-33.916,0
		c-12.383,4.846-26.382,13.46-39.842,25.304c-2.691,2.153-5.385,4.845-8.075,7.538c-1.614-1.615-3.768-3.23-5.384-4.846
		c-30.149-26.919-60.299-37.687-78.066-27.457c-8.613,4.846-14.535,15.075-17.229,29.61c-2.152,12.921-1.613,29.611,2.154,47.377
		c0.539,3.769,1.615,7,2.693,10.768c-4.308,1.077-8.615,2.692-12.383,3.769c-36.072,12.382-57.607,31.763-57.607,51.146
		c0,10.229,5.923,20.997,17.229,30.149c10.768,9.153,25.842,17.228,43.07,23.15c2.693,1.077,5.922,2.153,9.154,2.691
		c-1.078,3.769-1.615,8.076-2.693,11.846c-6.999,37.149-1.077,65.684,15.613,75.373c4.308,2.691,9.691,3.769,15.613,3.769
		s12.383-1.078,19.382-3.769c13.46-4.846,27.458-13.46,41.455-25.843c2.153-2.153,4.846-4.307,6.999-6.46
		c3.231,2.693,5.922,5.385,9.152,8.075c20.997,18.306,41.456,27.996,57.606,27.996c5.923,0,11.307-1.078,15.613-3.769
		c8.614-5.384,15.074-15.613,17.768-30.149c2.692-13.999,2.153-30.688-1.615-48.991c-0.538-2.693-1.078-5.922-2.153-8.614
		c2.153-0.539,4.307-1.078,5.922-2.153c38.764-12.921,62.452-33.381,62.452-53.838C423.845,249.89,417.923,239.661,407.155,230.508z
		 M311.861,129.832c9.691-3.231,17.229-3.769,22.074-1.077c9.69,5.384,16.151,28.534,8.614,66.22
		c-0.539,2.154-1.077,4.307-1.615,6.46c-13.998-3.23-28.534-5.384-44.147-6.999c-9.152-12.921-18.306-24.766-27.995-34.996
		c2.691-2.691,4.845-4.845,7.537-6.999C288.712,141.676,301.094,134.139,311.861,129.832z M304.863,287.039
		c-5.384,9.152-10.229,17.766-15.613,25.304c-9.691,0.538-19.92,1.076-30.149,1.076c-10.229,0-20.459-0.538-30.149-1.076
		c-5.384-8.076-11.306-16.69-16.151-25.843c-5.385-8.613-9.691-17.766-13.998-26.919c4.307-9.153,9.152-17.767,13.998-26.381l0,0
		c5.384-8.614,10.768-17.228,16.151-25.842c9.692-0.539,19.921-1.077,30.149-1.077c10.229,0,20.46,0.538,30.149,1.077
		c5.385,8.076,10.768,16.689,16.152,25.303c5.384,9.153,10.229,17.768,14.535,26.382
		C314.554,268.734,310.247,277.887,304.863,287.039z M326.398,276.271c4.307,10.229,8.075,19.92,11.307,29.073
		c-9.692,2.153-19.921,3.768-30.688,5.385c3.231-5.385,7-11.307,10.229-16.689C320.476,288.115,323.706,282.193,326.398,276.271z
		 M259.101,351.105c-6.461-6.999-13.459-15.074-19.92-23.688c6.461,0,12.921,0.538,19.382,0.538c6.999,0,13.459,0,19.92-0.538
		C272.021,336.031,265.562,344.106,259.101,351.105z M210.646,310.728c-10.768-1.077-20.997-2.692-30.688-4.846
		c2.692-9.69,6.46-19.382,10.768-29.072c3.23,5.922,5.921,11.306,9.152,17.228C203.647,299.96,206.878,305.344,210.646,310.728z
		 M200.417,226.201c-3.23,5.923-6.46,11.307-9.152,17.229c-4.307-9.691-7.538-19.381-10.768-28.533
		c9.691-2.154,19.382-3.77,30.149-5.385C206.878,214.896,203.647,220.817,200.417,226.201z M258.563,169.671
		c6.46,6.999,12.921,15.075,19.382,23.689c-6.461-0.539-12.922-0.539-19.92-0.539c-6.461,0-12.922,0-19.383,0.539
		C245.642,184.746,252.102,176.67,258.563,169.671z M316.707,226.201c-3.23-5.921-6.46-11.305-10.229-16.688
		c10.768,1.077,20.46,3.231,30.149,5.384c-2.691,9.152-6.46,18.844-10.768,28.535C323.706,238.045,320.476,232.124,316.707,226.201z
		 M174.036,191.207c-3.23-16.152-3.768-30.688-1.614-41.994c1.614-9.691,5.384-16.689,10.229-19.92
		c9.69-5.384,32.841,0,61.375,25.842c1.615,1.615,3.23,3.23,4.846,4.846c-9.691,10.229-18.843,22.074-27.996,34.995
		c-15.613,1.615-30.688,3.769-44.147,7C175.651,197.667,175.113,194.438,174.036,191.207z M158.424,299.96
		c-34.995-11.845-51.146-29.073-51.146-40.379c0-10.768,15.075-26.38,47.916-37.687c3.77-1.077,7.539-2.691,11.307-3.768
		c4.307,13.459,9.691,27.457,16.152,41.995c-6.461,14.535-12.383,28.534-16.152,42.53
		C163.808,301.575,161.116,301.036,158.424,299.96z M191.265,393.1c-3.769,0-6.461-0.54-8.613-2.154
		c-9.152-5.385-15.613-25.842-8.615-60.298c0.539-3.769,1.615-6.999,2.154-10.768c13.459,3.23,28.534,5.384,44.686,6.46
		c9.152,12.922,18.842,24.766,28.533,34.995c-2.152,2.153-4.307,3.769-6.46,5.922C221.952,385.562,203.109,393.1,191.265,393.1z
		 M343.626,326.879c7,36.071,0,58.683-9.152,64.066c-9.152,5.383-30.149,0.539-56.529-22.612c-2.692-2.154-5.385-4.846-8.076-7.539
		c9.152-10.228,18.844-22.073,27.996-34.994c16.152-1.615,31.227-3.769,44.686-6.999
		C342.55,321.495,343.088,324.187,343.626,326.879z M357.086,299.96c-1.615,0.538-3.769,1.077-5.386,1.615
		c-4.307-12.922-9.69-27.458-16.688-41.994c6.461-14,11.845-27.997,16.151-41.457c3.23,1.078,6.461,2.154,9.691,3.231
		c15.614,5.384,28.535,12.382,37.149,19.382c7.537,6.461,11.844,12.921,11.844,18.843
		C409.847,270.887,393.157,288.115,357.086,299.96z"/>
</g>
</svg>
